<?xml version="1.0" encoding="UTF-8"?>
<svg version="1.1" xmlns="http://www.w3.org/2000/svg" width="400" height="400">
<path d="M0 0 C132 0 264 0 400 0 C400 132 400 264 400 400 C268 400 136 400 0 400 C0 268 0 136 0 0 Z M96 146 C83.31930288 161.36315228 82.30108255 176.80368493 84 196 C85.2532793 201.0398776 87.00180515 204.78793423 90 209 C91.093125 210.60875 92.18625 212.2175 93.3125 213.875 C97.99027037 219.10776008 102.57347669 224.09828334 109.5625 225.9375 C110.366875 225.958125 111.17125 225.97875 112 226 C112 226.66 112 227.32 112 228 C117.20163401 229.0403268 121.88563882 229.20445789 127.1875 229.25 C128.97542969 229.27578125 130.76335937 229.3015625 132.60546875 229.328125 C142.78569953 228.70890749 149.41654115 225.77915261 157 219 C158.38331399 217.03423801 159.73480097 215.04378306 161 213 C161.99 212.67 162.98 212.34 164 212 C163.86197134 218.47935802 163.71328078 224.95842718 163.5625 231.4375 C163.52318359 233.28923828 163.48386719 235.14097656 163.44335938 237.04882812 C163.40146484 238.80517578 163.35957031 240.56152344 163.31640625 242.37109375 C163.27974854 243.99974365 163.24309082 245.62839355 163.20532227 247.30639648 C163 251 163 251 162 252 C157.3697755 252.16122299 152.75299361 252.26002098 148.12109375 252.31640625 C146.72415787 252.33718735 145.32722198 252.35796844 143.88795471 252.37937927 C139.40452208 252.44501446 134.92102861 252.50382447 130.4375 252.5625 C127.40689463 252.60567194 124.37629552 252.64928578 121.34570312 252.69335938 C113.89719852 252.80071007 106.44863245 252.90193774 99 253 C99 257.62 99 262.24 99 267 C121.77 267 144.54 267 168 267 C168 266.34 168 265.68 168 265 C168.928125 264.773125 169.85625 264.54625 170.8125 264.3125 C174.99242112 262.59135601 176.01714461 259.96571077 178 256 C178.09411684 252.24628938 178.12563061 248.51116262 178.11352539 244.75732422 C178.11367142 243.5866037 178.11381744 242.41588318 178.1139679 241.20968628 C178.11326901 237.32466809 178.10547773 233.43969735 178.09765625 229.5546875 C178.09579198 226.86711656 178.09436812 224.17954528 178.09336853 221.49197388 C178.08954403 214.40638293 178.07971431 207.32081237 178.06866455 200.23522949 C178.05844898 193.00968705 178.0538706 185.78414133 178.04882812 178.55859375 C178.038092 164.37238686 178.02101637 150.18619512 178 136 C173.38 136 168.76 136 164 136 C164 141.28 164 146.56 164 152 C163.01 152 162.02 152 161 152 C160.01 149.525 160.01 149.525 159 147 C156.60416349 144.18668622 156.60416349 144.18668622 154 142 C153.34 142 152.68 142 152 142 C152 141.34 152 140.68 152 140 C136.11437793 127.29150235 109.38399494 132.1463912 96 146 Z M210 140 C210 140.66 210 141.32 210 142 C208.35 142.66 206.7 143.32 205 144 C198.50116431 149.69881039 194.64885663 155.73556731 192 164 C191.38125 165.794375 191.38125 165.794375 190.75 167.625 C188.08353755 183.17936432 189.78142253 199.5459045 198.125 213.0625 C204.97313272 222.44804611 214.76349627 228.38634009 226 231 C246.66281034 232.27810178 246.66281034 232.27810178 265 224 C266.093125 223.38125 267.18625 222.7625 268.3125 222.125 C277.20391439 214.58990306 283.15588812 203.49337966 284.31152344 191.86547852 C284.47313465 188.4462972 284.50767448 185.04781735 284.5 181.625 C284.52835937 180.48289063 284.55671875 179.34078125 284.5859375 178.1640625 C284.60894812 168.03939103 281.51220037 161.02440074 277 152 C276.34 152 275.68 152 275 152 C274.01 150.02 274.01 150.02 273 148 C264.94091462 139.04546069 254.99000629 134.42148041 243.01171875 133.69921875 C230.9021899 133.67256535 220.74696164 133.90037312 210 140 Z M292 210 C289.88877368 214.22245265 290.44916165 219.40768465 291 224 C293.11193926 227.27906358 294.52227877 229.26113938 298 231 C304.34831238 231.27601358 309.14808491 231.31236358 314.3125 227.125 C316.95079383 222.23927069 317.01935856 217.41909 316 212 C311.92358418 207.48049551 309.24993332 206.08223246 303.25 205.6875 C297.92493575 206.00446811 295.93833216 206.56658222 292 210 Z " fill="#D3FEC9" transform="translate(0,0)"/>
<path d="M0 0 C2.72636719 -0.03867188 2.72636719 -0.03867188 5.5078125 -0.078125 C13.09610093 0.38578783 18.38745248 2.35747149 24.875 6.25 C24.875 6.91 24.875 7.57 24.875 8.25 C26.195 8.91 27.515 9.57 28.875 10.25 C33.875 15.70454545 33.875 15.70454545 33.875 18.25 C34.865 18.25 35.855 18.25 36.875 18.25 C36.875 12.97 36.875 7.69 36.875 2.25 C41.495 2.25 46.115 2.25 50.875 2.25 C50.94448843 17.79240387 50.99780557 33.33477082 51.03043652 48.87729836 C51.04609714 56.0941987 51.06734308 63.31099282 51.10131836 70.52783203 C51.13389702 77.49153056 51.15185003 84.45512687 51.15963173 91.41889572 C51.16517787 94.07664983 51.17600797 96.73439829 51.19219017 99.39210892 C51.21394395 103.11260349 51.21696769 106.83267479 51.21557617 110.55322266 C51.226362 111.65373962 51.23714783 112.75425659 51.2482605 113.88812256 C51.22604355 119.37204649 51.151035 123.71329314 47.875 128.25 C42.34402895 131.01548553 37.54672098 131.37497942 31.42651367 131.37939453 C29.54007393 131.38412277 29.54007393 131.38412277 27.61552429 131.38894653 C26.27158096 131.3869223 24.92763763 131.38489807 23.54296875 131.3828125 C21.46173454 131.38424759 21.46173454 131.38424759 19.3384552 131.38571167 C16.41256668 131.38639116 13.48667663 131.384553 10.56079102 131.38037109 C6.06197774 131.37499938 1.56326338 131.38033432 -2.93554688 131.38671875 C-5.77604189 131.38605833 -8.61653684 131.3847779 -11.45703125 131.3828125 C-13.48812798 131.38584885 -13.48812798 131.38584885 -15.56025696 131.38894653 C-25.01003934 131.36496066 -25.01003934 131.36496066 -26.125 130.25 C-26.20829267 127.58463446 -26.20829267 124.91536554 -26.125 122.25 C-23.57104418 119.69604418 -15.39979142 120.98032093 -11.68359375 120.93359375 C-10.33104996 120.91281265 -8.97850616 120.89203156 -7.5849762 120.87062073 C-3.24420476 120.80498783 1.09662949 120.74617659 5.4375 120.6875 C8.37175141 120.64432784 11.30599636 120.600714 14.24023438 120.55664062 C21.45175777 120.44929246 28.66334463 120.34806413 35.875 120.25 C35.875 119.26 35.875 118.27 35.875 117.25 C35.94387137 114.30849625 36.01759921 111.36710555 36.09375 108.42578125 C36.13886719 106.67587891 36.18398437 104.92597656 36.23046875 103.12304688 C36.27816406 101.28806641 36.32585937 99.45308594 36.375 97.5625 C36.42269531 95.71591797 36.47039062 93.86933594 36.51953125 91.96679688 C36.63767788 87.39452227 36.75618262 82.82225722 36.875 78.25 C33.46496422 79.05919578 33.46496422 79.05919578 31.25 82.9375 C25.67288804 90.06380973 19.6665359 93.54815942 10.875 95.25 C7.31544722 95.40778634 3.75043901 95.4653949 0.1875 95.4375 C-2.54080078 95.42783203 -2.54080078 95.42783203 -5.32421875 95.41796875 C-10.125 95.25 -10.125 95.25 -15.125 94.25 C-15.125 93.59 -15.125 92.93 -15.125 92.25 C-16.5790625 91.9715625 -16.5790625 91.9715625 -18.0625 91.6875 C-27.73669643 88.2643228 -34.75100341 80.57164809 -39.51416016 71.6472168 C-43.09835761 63.71077958 -43.89167623 56.90169529 -43.75 48.25 C-43.76933594 47.06921875 -43.78867188 45.8884375 -43.80859375 44.671875 C-43.7312797 30.63164378 -37.89671411 20.17605693 -29 9.5 C-20.46613831 2.34256762 -10.90983943 0.09206616 0 0 Z M-22.125 24.25 C-22.455 25.57 -22.785 26.89 -23.125 28.25 C-23.785 28.25 -24.445 28.25 -25.125 28.25 C-29.13606252 41.787336 -30.16699534 55.11445261 -24.125 68.25 C-19.15305295 75.13423438 -13.48456109 80.16010973 -5.125 82.25 C-2.18994975 82.39605035 0.74896247 82.47088154 3.6875 82.5 C5.24082031 82.52578125 6.79414063 82.5515625 8.39453125 82.578125 C15.95917822 82.02413167 21.7543384 78.59369533 27.875 74.25 C36.86559623 63.46128452 37.79820443 51.83607594 36.875 38.25 C34.8989307 30.33594028 31.14150795 23.76531155 24.4375 19.0625 C23.49003906 18.38832031 22.54257813 17.71414062 21.56640625 17.01953125 C15.86942726 13.27391227 11.94828298 12.92541598 5.1875 12.875 C2.61388672 12.83246094 2.61388672 12.83246094 -0.01171875 12.7890625 C-9.37878965 13.6334585 -15.56053875 17.68553875 -22.125 24.25 Z " fill="#1EB06A" transform="translate(127.125,133.75)"/>
<path d="M0 0 C0 0.66 0 1.32 0 2 C1.32 2.33 2.64 2.66 4 3 C10.66736335 8.07299385 13.81637685 15.09558333 16 23 C17.39923297 35.98530595 15.98140998 45.50857069 9.125 56.6875 C2.30872527 63.8136054 -5.66388418 68.35021673 -15.6875 68.625 C-22.77990472 68.20831037 -30.01442445 66.9903837 -36 63 C-36 62.34 -36 61.68 -36 61 C-37.32 60.34 -38.64 59.68 -40 59 C-40.495 57.515 -40.495 57.515 -41 56 C-41.66 56 -42.32 56 -43 56 C-43 55.34 -43 54.68 -43 54 C-43.66 54 -44.32 54 -45 54 C-49.87788724 42.4150178 -51.84153278 28.25875878 -47.3125 16.1875 C-45.10593935 12.19183612 -42.90871283 8.52107343 -40 5 C-39.34 5 -38.68 5 -38 5 C-38 4.34 -38 3.68 -38 3 C-26.92694144 -5.85844684 -12.63798447 -4.04415503 0 0 Z " fill="#CFFDC9" transform="translate(254,150)"/>
<path d="M0 0 C2.62775391 -0.02513672 2.62775391 -0.02513672 5.30859375 -0.05078125 C16.59973727 0.72994466 26.92845153 4.78032818 34.5625 13.3125 C35.5525 14.3025 36.5425 15.2925 37.5625 16.3125 C37.5625 16.9725 37.5625 17.6325 37.5625 18.3125 C38.2225 18.3125 38.8825 18.3125 39.5625 18.3125 C44.95458923 28.81288429 46.92483236 35.80860437 46.9375 47.4375 C46.96199219 48.59765625 46.98648438 49.7578125 47.01171875 50.953125 C47.05618335 64.20357439 42.97314565 75.0295198 34.5625 85.3125 C22.87793436 96.63568732 9.53250009 97.80375249 -6.06640625 97.6171875 C-17.40756178 96.97383468 -25.95623886 92.80335071 -34.4375 85.3125 C-35.81271132 83.68021651 -37.1507898 82.01541879 -38.4375 80.3125 C-39.283125 79.260625 -40.12875 78.20875 -41 77.125 C-48.57774752 65.27262568 -49.28887197 47.9722491 -46.68359375 34.37890625 C-44.00012296 24.4342792 -39.56816208 17.81846008 -32.4375 10.3125 C-30.7875 9.6525 -29.1375 8.9925 -27.4375 8.3125 C-27.4375 7.6525 -27.4375 6.9925 -27.4375 6.3125 C-18.37264068 1.36803128 -10.27540637 0.02264968 0 0 Z M-21.4375 19.3125 C-21.4375 19.9725 -21.4375 20.6325 -21.4375 21.3125 C-22.4275 21.6425 -23.4175 21.9725 -24.4375 22.3125 C-32.33369627 34.3985147 -33.40513017 43.79804752 -32.4375 58.3125 C-31.46290209 62.62615508 -30.16043636 66.22052614 -28.4375 70.3125 C-27.7775 70.3125 -27.1175 70.3125 -26.4375 70.3125 C-26.4375 70.9725 -26.4375 71.6325 -26.4375 72.3125 C-25.7775 72.3125 -25.1175 72.3125 -24.4375 72.3125 C-23.7775 73.6325 -23.1175 74.9525 -22.4375 76.3125 C-21.4475 76.6425 -20.4575 76.9725 -19.4375 77.3125 C-19.4375 77.9725 -19.4375 78.6325 -19.4375 79.3125 C-10.94261562 83.98468641 -2.03781147 85.67787763 7.5625 84.3125 C19.05408543 80.43348382 25.11401594 74.50208678 31 63.9375 C34.59360043 51.00053846 33.84178392 39.25580347 27.5078125 27.3828125 C25.22741914 23.78363744 22.98485591 20.87926693 19.5625 18.3125 C18.5725 18.3125 17.5825 18.3125 16.5625 18.3125 C16.5625 17.6525 16.5625 16.9925 16.5625 16.3125 C2.78057707 11.90228466 -8.68719794 11.66231877 -21.4375 19.3125 Z " fill="#1FB06A" transform="translate(237.4375,133.6875)"/>
<path d="M0 0 C2.5625 1.515625 2.5625 1.515625 6.6875 4.828125 C7.780625 5.570625 8.87375 6.313125 10 7.078125 C18.33372474 15.60565729 18.98249213 25.39615756 18.90625 36.61328125 C18.45240908 45.35782335 15.11135833 52.83362362 9.4375 59.453125 C1.8044188 66.04533149 -4.20732762 67.97984914 -14.125 68.078125 C-15.67832031 68.10390625 -17.23164063 68.1296875 -18.83203125 68.15625 C-27.9349358 67.48960311 -34.56798951 62.88930978 -40.5625 56.203125 C-47.05580375 45.87286903 -47.85445276 34.05187303 -45.6328125 22.203125 C-44.93647212 19.39123624 -44.13545483 16.60559754 -43.3125 13.828125 C-42.6525 13.828125 -41.9925 13.828125 -41.3125 13.828125 C-40.6525 12.178125 -39.9925 10.528125 -39.3125 8.828125 C-28.93608833 -1.54828667 -14.16590643 -5.0115235 0 0 Z " fill="#CFFDC9" transform="translate(145.3125,148.171875)"/>
<path d="M0 0 C4 2 4 2 8 6 C8.87419899 16.38111298 8.87419899 16.38111298 6.3125 21.125 C1.19650852 25.2731012 -3.68302754 25.60573709 -10 25 C-13.08959727 22.90348757 -15.31990874 21.36018252 -17 18 C-17.7125 6.95625 -17.7125 6.95625 -14.625 2.8125 C-9.6922132 -0.59347184 -6.01256603 -0.21997193 0 0 Z " fill="#21B06A" transform="translate(308,206)"/>
<path d="M0 0 C21.45 0 42.9 0 65 0 C64.67 0.66 64.34 1.32 64 2 C43.87 2.33 23.74 2.66 3 3 C3 5.64 3 8.28 3 11 C11.86230262 11.02472528 20.72458514 11.04287208 29.58691406 11.05493164 C32.60156606 11.0599593 35.61621562 11.06678232 38.63085938 11.07543945 C42.96484987 11.08757348 47.29880811 11.09324402 51.6328125 11.09765625 C53.65343307 11.10539818 53.65343307 11.10539818 55.71487427 11.11329651 C57.60615555 11.11340981 57.60615555 11.11340981 59.53564453 11.11352539 C60.64150909 11.115746 61.74737366 11.11796661 62.88674927 11.12025452 C66.00324815 10.99987453 68.93877267 10.58124273 72 10 C71.67 10.66 71.34 11.32 71 12 C70.34 12 69.68 12 69 12 C69 12.66 69 13.32 69 14 C46.23 14 23.46 14 0 14 C0 9.38 0 4.76 0 0 Z " fill="#4AB779" transform="translate(99,253)"/>
</svg>
